<?xml version="1.0" encoding="utf-8"?>
<svg xmlns="http://www.w3.org/2000/svg" height="36" width="36" viewBox="0 0 36 36">
  <g>
    <ellipse cy="18" cx="18" stroke-width="1.24999895691959" ry="17.3750005215402" rx="17.3750005215402" stroke="#0C5F9A" fill="transparent" />
    <path id="path1" transform="rotate(0,18,18) translate(8,8.00001192091901) scale(0.624999478459793,0.624999478459793)  " fill="#0C5F9A" d="M23,22C22.447999,22 22,22.449 22,23 22,23.551 22.447999,24 23,24 23.552,24 24,23.551 24,23 24,22.449 23.552,22 23,22z M23,20C24.653999,20 26,21.346 26,23 26,24.654 24.653999,26 23,26 21.346,26 20,24.654 20,23 20,21.346 21.346,20 23,20z M22.999,18C20.241981,18 17.999,20.242981 17.998999,23 17.999,25.757019 20.241981,28 22.999,28 25.755958,28 27.999,25.757019 27.999,23 27.999,20.242981 25.755958,18 22.999,18z M18.255533,15.777128L19.310333,17.053197 19.327354,17.042409C19.522586,16.921641,19.724162,16.810196,19.931458,16.708701L20.073285,16.643581 20.072615,16.643179C19.494436,16.305481,18.889818,16.017188,18.26563,15.780815z M14,2C10.967999,2 8.4999995,4.467 8.4999995,7.5 8.4999995,10.438219 10.81616,12.84526 13.71746,12.99283L13.973193,12.99932 13.999982,12.998981 14.02671,12.999322 14.282539,12.99283C17.183839,12.84526 19.5,10.438219 19.5,7.5 19.5,4.467 17.032,2 14,2z M14,0C18.136,0 21.5,3.3640003 21.5,7.5 21.5,9.95575 20.314058,12.13934 18.484733,13.508212L18.265096,13.664506 18.51211,13.744876C18.845289,13.857896 19.174164,13.983357 19.497976,14.120982 20.285475,14.455983 21.042896,14.863248 21.75974,15.338629L22.00999,15.511309 22.00999,14 24.001986,14 24.001986,16.072179 24.063403,16.080799C24.964642,16.218912,25.809901,16.529577,26.56425,16.977908L26.698674,17.060934 28.002995,15.483001 29.528002,16.782993 28.230017,18.354078 28.369922,18.515739C28.930109,19.185539,29.367628,19.96129,29.647549,20.808103L29.672428,20.886307 31.654023,20.532023 32.000028,22.523018 29.997638,22.881701 29.999,23C29.999,23.912223,29.823568,24.784235,29.50469,25.584093L29.447159,25.721618 31.254972,26.78101 30.258975,28.533008 28.40212,27.444159 28.303399,27.562634C27.75014,28.204905,27.08251,28.745984,26.332493,29.153928L26.239152,29.203241 26.994003,31.308987 25.121991,31.999989 24.357194,29.867246 24.236282,29.890475C23.834556,29.962437 23.421072,30 22.999,30 22.591995,30 22.192977,29.965072 21.804789,29.898054L21.626892,29.864745 20.862993,31.995027 18.991021,31.303025 19.746358,29.196619 19.628355,29.13359C18.850191,28.704215,18.16194,28.131047,17.599715,27.450155L17.585504,27.43252 15.731007,28.519985 14.735009,26.768989 16.544287,25.708039 16.485424,25.564247C16.171539,24.769819,15.999,23.904684,15.999,23L16.000527,22.867329 14.000016,22.508981 14.346014,20.517015 16.329989,20.872401 16.350445,20.808103C16.643594,19.921258,17.109592,19.112355,17.708321,18.421464L17.776994,18.343925 16.479975,16.774009 17.827471,15.625336 17.725978,15.590983C16.680354,15.250608,15.586496,15.052639,14.47656,15.008465L14.031197,14.999604 14,15 13.959806,14.99949 13.690731,15.002885C7.2160864,15.166407,1.9999971,20.44972,1.9999971,26.921989L0,26.928989 0,26.921989C0,20.804377,3.9878559,15.595463,9.5144186,13.731753L9.7309508,13.661694 9.5152659,13.508212C7.6859407,12.13934 6.5,9.95575 6.5,7.5 6.5,3.3640003 9.8639994,0 14,0z" />
  </g>
</svg>

