<?xml version="1.0" encoding="utf-8"?>
<svg xmlns="http://www.w3.org/2000/svg" height="28" width="28" viewBox="0 0 28 28">
  <g>
    <ellipse cy="14" cx="14" stroke-width="1" ry="13.5" rx="13.5" stroke="#0C5F9A" fill="transparent" />
    <path id="path1" transform="rotate(0,14,14) translate(6,6.57499980926514) scale(0.5,0.5)  " fill="#0C5F9A" d="M21.899974,18.700008C21.899974,18.700008,31.099976,20.900007,32.000001,29.7L0,29.7C0,29.7,2.6000036,20.100004,10.49999,19.200008L12.599994,28.400011 14.199998,28.400011 15.999984,23.700012 14.300005,20.800001 17.59999,20.800001 15.999984,23.800003 17.999983,28.400011 19.199994,28.400011z M15.800004,0C20.699961,3.6484977E-08 24.599982,4.0000024 24.599982,8.7999931 24.599982,13.700005 20.599986,17.600002 15.800004,17.600002 10.900014,17.600002 6.9999934,13.599999 6.9999934,8.7999931 6.9000178,4.0000024 10.900014,3.6484977E-08 15.800004,0z" />
  </g>
</svg>

